<svg xmlns="http://www.w3.org/2000/svg" viewBox="0 0 120 120">
  <!-- Pointy hexagon outline (dark navy) -->
  <polygon points="60,8 101,31 101,77 60,100 19,77 19,31"
           fill="none" stroke="#1a2d6d" stroke-width="5" stroke-linejoin="round"/>

  <!-- V chevron inside left half -->
  <polyline points="19,31 52,54 19,77"
            fill="none" stroke="#1a2d6d" stroke-width="5.5"
            stroke-linecap="round" stroke-linejoin="round"/>

  <!-- B inside right half (blue) -->
  <line x1="60" y1="26" x2="60" y2="86" stroke="#2563eb" stroke-width="5.5" stroke-linecap="round"/>
  <path d="M60,26 C78,26 83,35 83,43 C83,51 78,56 60,56"
        fill="none" stroke="#2563eb" stroke-width="5" stroke-linecap="round"/>
  <path d="M60,56 C81,56 87,65 87,73 C87,81 81,86 60,86"
        fill="none" stroke="#2563eb" stroke-width="5" stroke-linecap="round"/>

  <!-- Gold arrow through center -->
  <line x1="17" y1="54" x2="96" y2="54" stroke="#c9922a" stroke-width="3.5" stroke-linecap="round"/>
  <polygon points="109,54 94,47 94,61" fill="#c9922a"/>
  <line x1="17" y1="54" x2="29" y2="46" stroke="#c9922a" stroke-width="2.5" stroke-linecap="round"/>
  <line x1="17" y1="54" x2="29" y2="62" stroke="#c9922a" stroke-width="2.5" stroke-linecap="round"/>
</svg>
